<?xml version="1.0" encoding="UTF-8"?>
<svg id="Camada_1" xmlns="http://www.w3.org/2000/svg" viewBox="0 0 80 80">
  <defs>
    <style>
      .cls-1 {
        fill: #ff085c;
      }

      .cls-2 {
        fill: #4a0ccc;
      }
    </style>
  </defs>
  <g>
    <path class="cls-2" d="M56.48,20.7H20.33s-11.06,18.75-11.06,18.75l6.86,11.25h7.24c-.62-1.63-1-3.38-1-5.23,0-.28.07-.54.08-.82h-2.93l-3.2-5.25,7.46-12.65h29.06l6.91,13.02-3.59,4.9-2.76-6.26h-3.31c1.15,2.11,1.87,4.49,1.87,7.06,0,4.95-2.46,9.31-6.2,12l7.14,7.14v-13.31h5.89l8.06-11.02-10.4-19.58Z"/>
    <path class="cls-1" d="M51.97,45.46c0-2.57-.71-4.95-1.87-7.06h-17.38v6.05h.04l13.01,13.01c3.74-2.69,6.2-7.04,6.2-12ZM48.09,44.88v8.07l-8.07-8.07h8.07Z"/>
    <path class="cls-1" d="M30.31,44.64h-7.85c-.02.28-.08.54-.08.82,0,1.85.38,3.6,1,5.23h6.94v-6.05Z"/>
  </g>
  <path class="cls-1" d="M62.63,53.55c0-1.8,1.35-3.18,3.35-3.18s3.32,1.38,3.32,3.18-1.35,3.18-3.35,3.18-3.32-1.38-3.32-3.18Z"/>
</svg>