<svg width="109" height="49" viewBox="0 0 109 49" fill="none" xmlns="http://www.w3.org/2000/svg">
<path d="M9.94995 10.7198H4.18995V8.6398H7.84995V5.39981H4.18995V3.3098H9.94995V0.0498047H0.949951V13.9798H9.94995V10.7198Z" fill="white"/>
<path d="M20.35 0.140137H17.11V13.9801H26.04V10.7401H20.35V0.140137Z" fill="white"/>
<path d="M38.1299 0.100098L33.0499 13.9901H36.4099L37.1599 12.0501L40.9799 12.0001L41.7299 13.9901H45.1399L39.6799 0.100098H38.1299ZM38.4099 8.7801L39.0899 7.0201L39.7699 8.8001L38.4199 8.7801H38.4099Z" fill="white"/>
<path d="M57.76 5.62L57.37 5.47001C56.8944 5.32291 56.4755 5.03316 56.17 4.64001C56.1045 4.43908 56.1189 4.22066 56.21 4.03001C56.39 3.58001 56.63 2.97001 58.6 3.66001L59.62 4.06L60.7 1.00001L59.7 0.610006C55.24 -0.939994 53.66 1.66001 53.19 2.85001C52.9903 3.34693 52.891 3.8785 52.8979 4.41401C52.9048 4.94952 53.0176 5.47836 53.23 5.97001C53.8496 7.1485 54.8987 8.04361 56.16 8.47001C56.22 8.50001 56.29 8.53001 56.36 8.56001C56.4013 8.57331 56.4415 8.59004 56.48 8.61001C56.57 8.65001 56.66 8.68001 56.75 8.72001V8.73001C57.1746 8.87619 57.5398 9.15711 57.79 9.53001C57.823 9.63409 57.8338 9.74391 57.8217 9.85242C57.8097 9.96092 57.775 10.0657 57.72 10.16C57.55 10.53 57.29 11.09 55.37 10.49L53.29 9.61001L52.02 12.56L54.14 13.48L54.3 13.54C55.1063 13.8125 55.9492 13.9608 56.8 13.98C57.6442 14.0221 58.4796 13.7923 59.1834 13.3243C59.8872 12.8562 60.4223 12.1748 60.71 11.38C60.9338 10.8862 61.0528 10.3513 61.0597 9.80919C61.0666 9.26706 60.9612 8.72938 60.75 8.23001C60.1248 7.00889 59.0544 6.07455 57.76 5.62Z" fill="white"/>
<path d="M71.46 13.98H74.7001V3.24H78.36V0H67.8V3.24H71.46V13.98Z" fill="white"/>
<path d="M88.76 0.189941H85.52V13.9899H88.76V0.189941Z" fill="white"/>
<path d="M102.86 13.9801C103.92 13.9788 104.967 13.7348 105.918 13.2668C106.87 12.7988 107.702 12.1193 108.35 11.2801L109 10.4101L106.41 8.42014L105.8 9.31014C105.421 9.81003 104.92 10.2048 104.346 10.4571C103.772 10.7094 103.142 10.8108 102.518 10.7518C101.893 10.6927 101.294 10.4751 100.777 10.1197C100.26 9.76418 99.8426 9.28257 99.564 8.72049C99.2853 8.15841 99.1548 7.53448 99.1848 6.90784C99.2148 6.28119 99.4044 5.67259 99.7355 5.13973C100.067 4.60686 100.528 4.16739 101.077 3.86295C101.625 3.55852 102.243 3.39922 102.87 3.40014C103.789 3.40255 104.673 3.74856 105.35 4.37014L106.14 5.11014L108.3 2.69014L107.52 1.97014C106.69 1.21157 105.687 0.666936 104.599 0.383454C103.51 0.0999716 102.369 0.0861972 101.275 0.343321C100.18 0.600445 99.1643 1.12071 98.316 1.85901C97.4676 2.59732 96.8122 3.53138 96.4064 4.58024C96.0007 5.62909 95.8569 6.76108 95.9874 7.87807C96.118 8.99507 96.5191 10.0634 97.1558 10.9903C97.7925 11.9173 98.6458 12.675 99.6415 13.1978C100.637 13.7205 101.745 13.9925 102.87 13.9901L102.86 13.9801Z" fill="white"/>
<path d="M7.75998 30.5398L2.57998 23.7898L0.869984 23.7798L0.859985 37.7398H4.37998V31.8398L7.75998 36.1298L11.11 31.8498L11.08 37.7498H14.66L14.67 23.7998H12.96L7.75998 30.5398Z" fill="white"/>
<path d="M25.07 23.9502H21.83V37.7502H25.07V23.9502Z" fill="white"/>
<path d="M35.45 30.5598V23.8198H32.24V37.7498H33.73L39.52 30.7198V37.7498H42.76V23.8198H40.99L35.45 30.5598Z" fill="white"/>
<path d="M52.56 25.3202C51.6846 25.933 50.9818 26.761 50.5194 27.7243C50.057 28.6877 49.8506 29.7539 49.92 30.8202C49.92 35.2302 52.91 37.7502 58.13 37.7502H59.76V23.9102H58.13C56.1727 23.798 54.2282 24.2902 52.56 25.3202ZM56.52 34.4102C55.7638 34.3126 55.0392 34.046 54.4 33.6302C53.9706 33.3072 53.6319 32.8788 53.4164 32.3866C53.2009 31.8943 53.1161 31.3548 53.17 30.8202C53.17 28.6602 54.18 27.5702 56.53 27.2402V34.4002L56.52 34.4102Z" fill="white"/>
<path d="M99.12 16.75H72.71L64.63 30.45L69.64 38.67H80V34.25H72.12L69.78 30.41L75.23 21.17H96.46L101.51 30.68L98.89 34.26L96.87 29.69H81.76V34.11H81.79L91.29 43.61L96.51 48.83V39.11H100.82L106.71 31.06L99.12 16.76V16.75ZM87.1 34.42H92.99V40.31L87.1 34.42Z" fill="white"/>
<path d="M106.06 38.4298C105.744 38.41 105.428 38.4555 105.13 38.5634C104.832 38.6713 104.56 38.8393 104.33 39.0569C104.101 39.2745 103.918 39.5371 103.794 39.8284C103.67 40.1196 103.607 40.4333 103.61 40.7498C103.604 41.0647 103.663 41.3774 103.784 41.6682C103.905 41.959 104.085 42.2217 104.312 42.4396C104.539 42.6576 104.809 42.8261 105.105 42.9345C105.401 43.043 105.716 43.089 106.03 43.0698C106.346 43.0896 106.663 43.0441 106.96 42.9362C107.258 42.8283 107.53 42.6603 107.76 42.4427C107.989 42.2251 108.172 41.9625 108.296 41.6712C108.42 41.38 108.483 41.0663 108.48 40.7498C108.486 40.4349 108.427 40.1222 108.306 39.8314C108.185 39.5406 108.005 39.2779 107.778 39.06C107.551 38.842 107.281 38.6735 106.985 38.5651C106.689 38.4566 106.374 38.4106 106.06 38.4298Z" fill="white"/>
</svg>
